<?xml version="1.0" encoding="UTF-8" standalone="no"?>
<!-- Created with Inkscape (http://www.inkscape.org/) -->

<svg
   version="1.1"
   id="svg1058"
   xml:space="preserve"
   width="512"
   height="512"
   viewBox="0 0 512 512"
   sodipodi:docname="logo.svg"
   inkscape:version="1.1.1 (3bf5ae0, 2021-09-20)"
   xmlns:inkscape="http://www.inkscape.org/namespaces/inkscape"
   xmlns:sodipodi="http://sodipodi.sourceforge.net/DTD/sodipodi-0.dtd"
   xmlns="http://www.w3.org/2000/svg"
   xmlns:svg="http://www.w3.org/2000/svg"><defs
     id="defs1062"><clipPath
       clipPathUnits="userSpaceOnUse"
       id="clipPath1072"><path
         d="M 0,792 H 612 V 0 H 0 Z"
         id="path1070" /></clipPath></defs><sodipodi:namedview
     id="namedview1060"
     pagecolor="#929292"
     bordercolor="#ffffff"
     borderopacity="1"
     inkscape:pageshadow="0"
     inkscape:pageopacity="0"
     inkscape:pagecheckerboard="0"
     showgrid="false"
     width="512px"
     inkscape:zoom="0.93371212"
     inkscape:cx="149.40365"
     inkscape:cy="254.89655"
     inkscape:window-width="1366"
     inkscape:window-height="719"
     inkscape:window-x="0"
     inkscape:window-y="0"
     inkscape:window-maximized="1"
     inkscape:current-layer="g1064"
     showborder="false" /><g
     id="g1064"
     inkscape:groupmode="layer"
     inkscape:label="logofinal"
     transform="matrix(1.3333333,0,0,-1.3333333,0,1056)"><g
       id="g1580"
       transform="matrix(1.8343628,0,0,1.806786,-331.70197,-118.33511)"><g
         id="g1074"
         transform="translate(390.3872,396.9589)"><path
           d="m 0,0 c 0,0 -0.018,0.64 -0.054,1.88 -0.061,1.238 -0.021,3.082 -0.257,5.472 -0.109,1.195 -0.168,2.535 -0.349,3.998 -0.203,1.46 -0.425,3.054 -0.665,4.777 -0.335,1.706 -0.643,3.55 -1.067,5.496 -0.242,0.966 -0.491,1.963 -0.748,2.989 -0.13,0.512 -0.261,1.032 -0.395,1.559 -0.158,0.52 -0.319,1.048 -0.481,1.583 -2.513,8.557 -6.725,18.695 -13.761,28.882 -3.47,5.11 -7.615,10.236 -12.496,15.12 -4.882,4.868 -10.279,9.766 -16.58,13.983 -6.277,4.23 -13.287,7.943 -20.907,10.865 -7.61,2.952 -15.88,4.924 -24.488,5.953 -1.076,0.162 -2.152,0.226 -3.232,0.309 -1.082,0.082 -2.167,0.164 -3.255,0.245 -1.115,0.029 -2.233,0.057 -3.354,0.086 l -1.685,0.043 c -0.484,0.003 -1.091,-0.024 -1.631,-0.034 -1.112,-0.028 -2.228,-0.057 -3.347,-0.085 -1.118,-0.041 -2.236,-0.16 -3.359,-0.236 -2.251,-0.12 -4.49,-0.469 -6.75,-0.746 -4.493,-0.717 -9.022,-1.599 -13.47,-2.951 -2.25,-0.587 -4.434,-1.424 -6.66,-2.159 -1.09,-0.431 -2.183,-0.862 -3.279,-1.295 l -1.64,-0.659 -1.613,-0.735 c -17.278,-7.698 -32.899,-20.721 -43.804,-37.362 -2.759,-4.135 -5.132,-8.536 -7.289,-13.047 -2.15,-4.521 -3.866,-9.249 -5.353,-14.048 -1.47,-4.811 -2.484,-9.757 -3.265,-14.737 -0.727,-5.017 -1.038,-9.951 -1.104,-15.124 0.062,-4.974 0.376,-10.073 1.116,-15.045 0.789,-4.977 1.846,-9.911 3.331,-14.715 1.514,-4.79 3.306,-9.486 5.472,-13.996 2.199,-4.491 4.671,-8.833 7.443,-12.957 11.128,-16.504 26.932,-29.266 44.208,-36.987 4.327,-1.914 8.712,-3.626 13.18,-4.925 2.211,-0.728 4.473,-1.23 6.7,-1.815 1.12,-0.268 2.251,-0.473 3.372,-0.712 1.121,-0.233 2.239,-0.473 3.369,-0.628 1.126,-0.177 2.248,-0.353 3.368,-0.529 1.12,-0.164 2.235,-0.254 3.348,-0.385 2.202,-0.289 4.498,-0.375 6.746,-0.522 l 0.844,-0.052 0.797,-0.007 1.659,-0.016 c 1.104,0.002 2.206,-0.051 3.302,-0.005 2.191,0.129 4.377,0.124 6.527,0.4 8.623,0.81 16.903,2.743 24.508,5.682 7.612,2.91 14.625,6.628 20.827,10.963 6.239,4.298 11.594,9.241 16.38,14.202 4.815,4.948 8.889,10.129 12.298,15.279 3.411,5.149 6.253,10.228 8.442,15.133 0.592,1.207 1.047,2.443 1.551,3.629 0.245,0.596 0.488,1.185 0.728,1.768 0.213,0.593 0.424,1.18 0.633,1.759 0.411,1.163 0.812,2.299 1.203,3.407 0.34,1.126 0.672,2.224 0.995,3.293 0.161,0.535 0.319,1.063 0.475,1.584 l 0.39,1.56 c 0.256,1.027 0.505,2.024 0.746,2.99 0.416,1.948 0.727,3.791 1.059,5.498 0.239,1.723 0.46,3.316 0.663,4.777 0.178,1.463 0.239,2.803 0.347,3.998 0.236,2.389 0.195,4.234 0.257,5.473 C -0.018,-0.64 0,0 0,0 m 0,0 c 0,0 -0.028,-0.639 -0.054,-1.879 -0.052,-1.239 0.017,-3.083 -0.201,-5.476 -0.099,-1.196 -0.15,-2.538 -0.317,-4.005 -0.169,-1.466 -0.353,-3.067 -0.553,-4.797 -0.291,-1.717 -0.563,-3.571 -0.931,-5.535 -0.2,-0.979 -0.407,-1.989 -0.62,-3.029 -0.107,-0.52 -0.215,-1.048 -0.325,-1.584 -0.134,-0.529 -0.271,-1.066 -0.409,-1.61 -2.174,-8.698 -5.806,-19.157 -12.304,-29.989 -3.258,-5.394 -7.206,-10.869 -11.945,-16.159 -4.76,-5.274 -10.484,-10.147 -16.853,-14.632 -6.39,-4.464 -13.619,-8.301 -21.473,-11.303 -7.846,-3.03 -16.393,-5.027 -25.292,-5.864 -2.22,-0.281 -4.475,-0.28 -6.736,-0.411 -1.131,-0.047 -2.267,0.006 -3.406,0.004 l -1.712,0.017 -0.893,0.012 -0.844,0.051 c -2.257,0.149 -4.506,0.23 -6.839,0.529 -1.156,0.135 -2.326,0.232 -3.479,0.401 -1.15,0.18 -2.304,0.361 -3.46,0.543 -1.161,0.16 -2.309,0.406 -3.461,0.645 -1.151,0.245 -2.313,0.457 -3.464,0.731 -2.288,0.601 -4.612,1.119 -6.885,1.865 -4.59,1.336 -9.097,3.093 -13.545,5.062 -17.754,7.936 -34.004,21.053 -45.459,38.04 -2.854,4.245 -5.4,8.715 -7.663,13.34 -2.23,4.645 -4.078,9.48 -5.636,14.415 -1.529,4.948 -2.619,10.029 -3.43,15.154 -0.762,5.154 -1.088,10.294 -1.148,15.56 0.06,5.066 0.386,10.371 1.134,15.483 0.803,5.124 1.848,10.213 3.36,15.164 1.529,4.94 3.297,9.805 5.509,14.458 2.218,4.642 4.662,9.171 7.501,13.426 11.221,17.123 27.292,30.523 45.082,38.45 l 1.66,0.756 1.69,0.679 c 1.127,0.445 2.253,0.89 3.375,1.333 2.292,0.759 4.541,1.618 6.858,2.224 4.58,1.39 9.244,2.301 13.87,3.037 2.326,0.287 4.632,0.644 6.948,0.77 1.156,0.078 2.307,0.199 3.458,0.241 1.151,0.03 2.299,0.059 3.444,0.089 0.588,0.01 1.108,0.038 1.75,0.033 l 1.685,-0.043 c 1.122,-0.029 2.24,-0.057 3.354,-0.085 1.135,-0.085 2.267,-0.169 3.394,-0.252 1.128,-0.087 2.257,-0.157 3.358,-0.321 8.862,-1.058 17.378,-3.092 25.214,-6.13 7.846,-3.008 15.063,-6.832 21.523,-11.185 1.591,-1.124 3.167,-2.235 4.693,-3.377 1.479,-1.204 3.011,-2.309 4.414,-3.537 2.849,-2.404 5.523,-4.89 7.909,-7.521 4.809,-5.225 8.831,-10.644 12.154,-16 3.292,-5.376 5.929,-10.665 7.92,-15.722 0.55,-1.242 0.954,-2.514 1.419,-3.728 0.453,-1.22 0.899,-2.412 1.247,-3.607 0.371,-1.186 0.733,-2.344 1.086,-3.474 0.298,-1.146 0.588,-2.263 0.87,-3.351 0.141,-0.543 0.28,-1.08 0.417,-1.608 0.112,-0.535 0.223,-1.063 0.331,-1.583 0.216,-1.039 0.426,-2.049 0.63,-3.027 0.381,-1.961 0.647,-3.817 0.944,-5.532 0.202,-1.73 0.389,-3.331 0.56,-4.797 0.171,-1.465 0.22,-2.807 0.32,-4.003 C -0.038,4.963 -0.106,3.118 -0.054,1.88 -0.028,0.64 0,0 0,0"
           style="fill:#231f20;fill-opacity:1;fill-rule:nonzero;stroke:none"
           id="path1076"
           sodipodi:nodetypes="ccccccccccccccccccccccccccccccccccccccccccccccccccccccccccccccccccccccccccccccccccccccccccccccccccccccccccccccccccccccccccccccccccccccc" /></g><g
         id="g1078"
         transform="translate(212.7475,324.1687)"><path
           d="m 0,0 0.317,57.945 50.244,-86.592 c 0,0 -7.867,2.285 -17.254,5.765 -2.532,0.94 -3.919,2.275 -6.598,3.299 -3.278,1.254 -5.607,2.837 -8.247,4.949 C 10.214,-8.036 3.259,-5.529 0,0"
           style="fill:#231f20;fill-opacity:1;fill-rule:nonzero;stroke:none"
           id="path1080" /></g><g
         id="g1082"
         transform="translate(242.7558,368.9172)"><path
           d="m 0,0 90.723,-65.981 c 0,0 -6.04,-3.778 -14.845,-6.598 -9.925,-3.178 -22.81,-5.376 -24.051,-4.085 C 49.485,-74.228 0,0 0,0 Z"
           style="fill:none;stroke:#231f20;stroke-width:0.5;stroke-linecap:butt;stroke-linejoin:miter;stroke-miterlimit:10;stroke-dasharray:none;stroke-opacity:1"
           id="path1084" /></g><g
         id="g1086"
         transform="translate(286.4679,364.7934)"><path
           d="m 0,0 98.971,-1.65 c 0,0 -4.281,-9.883 -9.897,-19.794 -3.139,-5.539 -7.315,-11.27 -9.897,-14.845 -2.269,-3.141 -2.114,-4.089 -3.299,-3.299 C 70.929,-36.289 0,0 0,0"
           style="fill:#231f20;fill-opacity:1;fill-rule:nonzero;stroke:none"
           id="path1088" /></g><g
         id="g1090"
         transform="translate(318.6334,382.1133)"><path
           d="m 0,0 65.981,47.836 c 0,0 -2.764,10.294 -8.248,19.794 C 51.379,78.637 42.123,89.074 41.238,89.074 39.588,89.074 0,0 0,0 Z"
           style="fill:none;stroke:#231f20;stroke-width:0.5;stroke-linecap:butt;stroke-linejoin:miter;stroke-miterlimit:10;stroke-dasharray:none;stroke-opacity:1"
           id="path1092" /></g><g
         id="g1136"
         transform="translate(348.3247,481.0841)"><path
           d="m 0,0 -29.691,-59.382 -6.598,77.527 c -0.174,0.081 -4.452,3.151 19.794,-8.248 C -7.879,5.846 0.771,0.771 0,0"
           style="fill:#231f20;fill-opacity:1;fill-rule:nonzero;stroke:none"
           id="path1138" /></g><g
         id="g1140"
         transform="translate(188.3219,363.9686)"><path
           d="M 0,0 42.887,44.537 -5.196,33.565 -3.299,11.547 Z"
           style="fill:none;stroke:#231f20;stroke-width:0.5;stroke-linecap:butt;stroke-linejoin:miter;stroke-miterlimit:10;stroke-dasharray:none;stroke-opacity:1"
           id="path1142" /></g><g
         id="g1144"
         transform="translate(292.5917,443.1281)"><path
           d="M 0,0 -31.341,54.434 -56.434,46.204 -76.228,31.358 Z"
           style="fill:none;stroke:#231f20;stroke-width:0.5;stroke-linecap:butt;stroke-linejoin:miter;stroke-miterlimit:10;stroke-dasharray:none;stroke-opacity:1"
           id="path1146" /></g><g
         id="g1148"
         transform="translate(251.0034,429.9492)"><path
           d="M 0,0 -57.733,13.196 -64.331,-1.65 -67.63,-16.495 Z"
           style="fill:#231f20;fill-opacity:1;fill-rule:nonzero;stroke:none"
           id="path1150" /></g><g
         id="g1244"
         transform="translate(273.2718,414.2788)"><path
           d="M 0,0 34.64,-32.99 H 14.846 L 0,-47.836 Z"
           style="fill:#6d7276;fill-opacity:1;fill-rule:nonzero;stroke:none"
           id="path1246" /></g></g><path
       style="opacity:0.99;fill:#ffffff;stroke-width:1.42889"
       d="m 340.91347,287.29412 c 6.90916,-16.3255 73.34803,-159.71938 86.45193,-186.58772 l 8.86356,-18.173928 5.82316,6.392993 c 19.62122,21.541275 33.19574,40.578935 43.9777,61.676785 5.76057,11.27213 11.70673,26.26916 10.7537,27.1223 C 495,179.32112 341.4112,288.63286 340.95145,288.63286 c -0.3325,0 -0.3496,-0.60243 -0.038,-1.33874 z"
       id="path322"
       transform="matrix(0.75000002,0,0,-0.75000002,0,792.00002)" /><path
       style="opacity:0.99;fill:#ffffff;stroke-width:1.42889"
       d="M 262.67786,485.90074 C 223.24589,428.89102 157.52524,332.11117 157.94981,331.67883 c 0.53785,-0.54769 209.53759,149.46754 209.58919,150.43832 0.0632,1.18896 -15.38083,7.82636 -27.87154,11.97841 -16.90909,5.62076 -34.49899,9.06782 -57.62453,11.29261 l -5.51893,0.53096 z"
       id="path398"
       transform="matrix(0.75000002,0,0,-0.75000002,0,792.00002)" /><path
       style="opacity:0.99;fill:#ffffff;stroke-width:1.42889"
       d="m 18.271942,325.54088 c -3.261243,-10.5583 -7.27289,-31.23484 -8.58549,-44.25071 -1.0133099,-10.04808 -1.5190529,-24.7843 -0.8507522,-24.78902 0.1472617,-10e-4 24.8253312,-5.52499 54.8401542,-12.27546 30.014824,-6.75047 54.699996,-12.14598 54.855936,-11.99004 0.2517,0.25169 -31.81076,33.28867 -81.198277,83.66628 l -16.758661,17.09463 z"
       id="path437"
       transform="matrix(0.75000002,0,0,-0.75000002,0,792.00002)" /><path
       style="opacity:0.99;fill:#ffffff;stroke-width:1.42889"
       d="M 254.36106,137.45149 C 247.2925,134.51452 224.15903,125.09004 202.95335,116.5082 181.74767,107.92636 155.24057,97.187284 144.04868,92.643584 132.8568,88.099882 116.75575,81.567702 108.26857,78.127627 L 92.837345,71.872944 97.558632,67.658343 C 118.09325,49.327495 154.55351,29.515097 184.36394,20.488598 l 12.01587,-3.638364 35.77388,61.189488 c 42.3594,72.453698 38.1492,64.960768 36.43571,64.844828 -0.75703,-0.0512 -7.15978,-2.4961 -14.22834,-5.43306 z"
       id="path476"
       transform="matrix(0.75000002,0,0,-0.75000002,0,792.00002)" /><path
       style="opacity:0.99;fill:#ffffff;stroke-width:1.42889"
       d="M 266.49299,490.24747 C 221.45031,425.27513 161.5429,336.64777 162.21406,335.97661 162.82511,335.36556 333.8988,457.6582 363.69343,480.00485 l 3.12199,2.34157 -6.96146,3.16316 c -17.80168,8.08875 -38.44528,13.87432 -61.58215,17.25899 -23.00355,3.36518 -19.92444,4.57837 -31.77882,-12.5211 z"
       id="path3803"
       transform="matrix(0.75000002,0,0,-0.75000002,0,792.00002)" /><path
       style="opacity:0.99;fill:#ffffff;stroke-width:1.42889"
       d="m 18.349562,323.17241 c -4.911045,-18.24667 -8.03077,-37.7535 -9.0637719,-56.67343 -0.2304882,-4.2215 -0.1248322,-8.14412 0.2347913,-8.71693 0.7341936,-1.16944 102.4693686,-24.03148 104.7758686,-23.54536 1.14424,0.24116 -92.007654,97.23593 -93.383496,97.23593 -0.181177,0 -1.334704,-3.73509 -2.563392,-8.30021 z"
       id="path3842"
       transform="matrix(0.75000002,0,0,-0.75000002,0,792.00002)" /><path
       style="fill:none;fill-rule:evenodd;stroke:#000000;stroke-width:0.75px;stroke-linecap:butt;stroke-linejoin:miter;stroke-opacity:1"
       d="m 362.65912,607.12396 v 0"
       id="path5128"
       inkscape:connector-type="polyline"
       inkscape:connector-curvature="0" /><path
       style="opacity:0.99;fill:#ffffff;stroke-width:1.42889"
       d="m 245.7931,504.8755 c -12.05892,-0.97891 -19.805,-2.16427 -35.36611,-5.41197 l -10.73326,-2.24009 -29.08411,-49.40686 C 154.61336,420.64282 127.93023,375.27627 111.31378,347.00203 94.697322,318.72779 80.445155,294.88861 79.642297,294.02608 c -1.233651,-1.32535 -1.459741,7.4827 -1.459741,56.86884 0,32.14039 -0.306402,62.06181 -0.680893,66.49203 l -0.680892,8.05494 -6.4556,-7.09011 C 52.27041,398.47849 37.055785,374.06183 26.102202,347.31785 l -4.869205,-11.88852 19.126509,-19.382 c 66.610384,-67.50021 85.112154,-86.79581 83.560184,-87.14546 -0.70999,-0.15995 -12.1347,2.15088 -25.38825,5.13518 -13.253549,2.9843 -38.073833,8.55541 -55.156186,12.38023 -17.082353,3.82482 -31.974329,7.23223 -33.093279,7.57201 -1.9421183,0.58977 -2.0009709,0.0897 -1.2967083,-11.01839 0.7532951,-11.88146 2.3228743,-24.90784 3.0941343,-25.67911 0.236044,-0.23603 35.568089,-8.86917 78.515655,-19.18472 42.947574,-10.31555 78.809404,-19.03581 79.692974,-19.37834 1.28559,-0.49838 1.17862,-0.78532 -0.53549,-1.43644 -1.1781,-0.4475 -31.78175,-7.45782 -68.00812,-15.57846 C 65.518053,153.59318 35.6799,146.7808 35.437415,146.5752 34.876864,146.09995 39.624055,137.28514 46.07969,126.81414 54.465776,113.21196 65.811304,98.827593 78.463682,85.75627 L 90.498986,73.322456 182.60446,110.72016 c 50.65802,20.56874 92.28572,37.22563 92.506,37.01533 0.22028,-0.2103 -0.68188,-2.21025 -2.0048,-4.44432 -19.59976,-33.0988 -72.85689,-124.7479 -73.07461,-125.75258 -0.42253,-1.949914 20.98004,-5.891635 40.40708,-7.441791 23.30178,-1.8593347 50.28144,0.112172 72.66924,5.310218 l 7.65531,1.777426 0.7794,8.008184 c 0.42868,4.404502 3.92525,44.636176 7.77016,89.403723 3.84492,44.76754 7.12523,82.11846 7.28957,83.00203 0.16434,0.88357 10.10341,-17.6714 22.08682,-41.23327 49.75669,-97.831973 49.32173,-97.020818 51.4218,-95.896896 2.20872,1.182073 22.0658,18.707752 23.10915,20.395936 0.38099,0.616456 -2.30926,7.253518 -5.97832,14.749029 -23.38333,47.769591 -92.52713,198.224681 -91.5473,199.204511 0.27845,0.27845 34.14276,-23.50556 75.25403,-52.85337 86.92214,-62.05049 88.13518,-62.90666 88.13518,-62.2058 0,0.29296 1.64037,6.23407 3.64527,13.20249 10.17349,35.35987 11.72663,74.85851 4.37257,111.20126 -1.43034,7.06856 -4.07747,17.55092 -5.88249,23.29412 l -3.28185,10.44219 -15.75941,0.004 c -8.66767,0.002 -60.36873,-0.75071 -114.89123,-1.67346 -54.52249,-0.92274 -101.51235,-1.5271 -104.4219,-1.34301 -5.27267,0.33361 -5.09784,0.43216 53.07908,29.91923 63.30739,32.08746 115.11828,58.78073 120.93714,62.30753 l 3.66332,2.22032 -9.11583,8.69537 c -12.01348,11.45937 -22.82571,20.2221 -34.62459,28.06136 -11.19566,7.43847 -23.18928,14.25057 -25.09004,14.25057 -0.95014,0 -209.0664,-148.18715 -221.70684,-157.86419 -1.20185,-0.9201 -1.40747,-0.82536 -0.93803,0.43218 0.90273,2.41826 96.26601,142.59304 116.71149,171.55459 4.02799,5.70575 7.32362,10.64571 7.32362,10.97768 0,0.80358 -14.02125,0.51324 -27.31035,-0.56553 z m 40.44151,-208.74568 c 13.39449,0 24.35363,-0.40942 24.35363,-0.90983 0,-0.8876 -78.77871,-75.36001 -82.6549,-78.1367 -1.88403,-1.34962 -1.95362,0.67197 -1.95362,56.75086 v 58.15034 l 17.95063,-17.92734 17.95062,-17.92733 z"
       id="path5362"
       transform="matrix(0.75000002,0,0,-0.75000002,0,792.00002)" /></g></svg>
